<!DOCTYPE svg PUBLIC "-//W3C//DTD SVG 1.1//EN" "http://www.w3.org/Graphics/SVG/1.1/DTD/svg11.dtd">
<!-- Uploaded to: SVG Repo, www.svgrepo.com, Transformed by: SVG Repo Mixer Tools -->
<svg width="800px" height="800px" viewBox="0 0 1024 1024" xmlns="http://www.w3.org/2000/svg" fill="#ffffff" stroke="#ffffff">
<g id="SVGRepo_bgCarrier" stroke-width="0"/>
<g id="SVGRepo_tracerCarrier" stroke-linecap="round" stroke-linejoin="round"/>
<g id="SVGRepo_iconCarrier">
<path fill="#000000" d="M128 320v576h576V320H128zm-32-64h640a32 32 0 0 1 32 32v640a32 32 0 0 1-32 32H96a32 32 0 0 1-32-32V288a32 32 0 0 1 32-32zM960 96v704a32 32 0 0 1-32 32h-96v-64h64V128H384v64h-64V96a32 32 0 0 1 32-32h576a32 32 0 0 1 32 32zM256 672h320v64H256v-64zm0-192h320v64H256v-64z"/>
</g>
</svg>